<svg xmlns="http://www.w3.org/2000/svg" version="1.0" width="512.000000pt" height="512.000000pt" viewBox="0 0 512.000000 512.000000" preserveAspectRatio="xMidYMid meet">

<g transform="translate(0.000000,512.000000) scale(0.100000,-0.100000)" fill="#000000" stroke="none">
<path d="M666 3222 l-669 -674 669 -669 669 -669 142 142 143 143 -527 527 -528 528 205 207 c113 115 351 355 530 535 l324 327 -29 32 c-17 17 -82 79 -145 138 l-115 107 -669 -674z"/>
<path d="M3640 3760 l-145 -138 325 -329 c179 -180 417 -421 530 -536 l205 -207 -528 -528 -527 -527 143 -143 142 -142 669 669 669 669 -663 668 c-365 368 -666 672 -669 676 -3 4 -71 -55 -151 -132z"/>
<path d="M1670 2723 c-44 -23 -60 -39 -82 -82 -36 -68 -36 -114 0 -182 22 -43 38 -59 81 -81 66 -35 112 -35 178 -3 68 34 103 86 110 162 4 48 1 66 -19 103 -33 62 -90 100 -159 106 -46 5 -62 2 -109 -23z"/>
<path d="M2506 2743 c-46 -13 -96 -57 -121 -106 -32 -66 -32 -112 3 -178 22 -43 38 -59 81 -81 31 -16 69 -28 91 -28 22 0 60 12 91 28 43 22 59 38 81 81 35 66 35 112 3 178 -33 66 -88 103 -159 108 -28 2 -60 1 -70 -2z"/>
<path d="M3297 2740 c-46 -14 -94 -56 -117 -106 -47 -96 -6 -209 93 -259 66 -32 112 -32 178 3 43 22 59 38 81 81 16 31 28 69 28 91 0 22 -12 60 -28 91 -44 85 -143 127 -235 99z"/>
</g>
</svg>